# xmcd
#
# Track frame offsets: 
#        150
#        12411
#        23362
#        35100
#        48861
#        62428
#        74001
#        86530
#        96456
#        105740
#        117491
#        130463
#        140657
#        156123
#        166217
#        177130
#        187825
#        198287
#        211072
#        224312
#        235573
#        248415
#        261219
#        269189
#
# Disc length: 3723 seconds
#
# Revision: 0
# Processed by: cddbd v1.5.2PL0 Copyright (c) Steve Scherf et al.
# Submitted via: ExactAudioCopyFreeDBPlugin 1.0
#
DISCID=540e8918
DTITLE=Various Artist - Westside Blues Rumble
DYEAR=2014
DGENRE=Blues
TTITLE0=Oscar Boyd - She's My Baby
TTITLE1=Freddy Young - Someday Baby
TTITLE2=Lefty - Ninety Days
TTITLE3=A.C. Reed - Mean Cop
TTITLE4=J.L. Smith - Come Dance With Me
TTITLE5=Freddy Young - Monkey Business
TTITLE6=Al Perkins Band - Love Me Baby
TTITLE7=Sammy Hunt and The Jaguars - The Big Change
TTITLE8=A.C. Reed - Crying Blues
TTITLE9=Lefty - Rock Alley
TTITLE10=Bobby Davis - Sweet Song
TTITLE11=Come On Home A.C. Reed
TTITLE12=Chicago Piano "C" Red - Miss Annie Lou
TTITLE13=Oscar Boyd - Twist With Ossie Lee
TTITLE14=Sammy Hunt and The Jaguars - One Of These Days
TTITLE15=A.C. Reed and His Band - My Baby Is Fine
TTITLE16=Bill Warren With Jump Jackson Band - Riding In My Jaguar
TTITLE17=A.C. Reed - I'd Rather Fight Than Switch
TTITLE18=J.L. Smith - Tears Won't Help You Baby
TTITLE19=Ace St. Clair - Crazy Flu
TTITLE20=Al Perkins - She's Alright
TTITLE21=A.C. Reed - Talkin' 'bout My Friends
TTITLE22=Young Guitar Red - Red Hot Red
TTITLE23=Earl Washington - The Cool Gent
EXTD=
EXTT0=
EXTT1=
EXTT2=
EXTT3=
EXTT4=
EXTT5=
EXTT6=
EXTT7=
EXTT8=
EXTT9=
EXTT10=
EXTT11=
EXTT12=
EXTT13=
EXTT14=
EXTT15=
EXTT16=
EXTT17=
EXTT18=
EXTT19=
EXTT20=
EXTT21=
EXTT22=
EXTT23=
PLAYORDER=
